<svg id="visual" viewBox="0 0 900 300" width="900" height="300" xmlns="http://www.w3.org/2000/svg" xmlns:xlink="http://www.w3.org/1999/xlink" version="1.1"><path d="M0 31L150 40L300 31L450 40L600 43L750 34L900 37L900 0L750 0L600 0L450 0L300 0L150 0L0 0Z" fill="#ffffff"></path><path d="M0 82L150 85L300 73L450 82L600 88L750 67L900 79L900 35L750 32L600 41L450 38L300 29L150 38L0 29Z" fill="#c9dfda"></path><path d="M0 187L150 181L300 166L450 154L600 178L750 154L900 178L900 77L750 65L600 86L450 80L300 71L150 83L0 80Z" fill="#93c0b6"></path><path d="M0 256L150 241L300 256L450 241L600 259L750 244L900 250L900 176L750 152L600 176L450 152L300 164L150 179L0 185Z" fill="#5ba194"></path><path d="M0 301L150 301L300 301L450 301L600 301L750 301L900 301L900 248L750 242L600 257L450 239L300 254L150 239L0 254Z" fill="#038373"></path></svg>